<svg xmlns="http://www.w3.org/2000/svg" width="89" height="90" viewBox="0 0 89 90" fill="none">
  <g opacity="0.6" clip-path="url(#clip0_313_1050)">
    <path d="M60.3827 88.0279C59.9173 88.1666 59.4163 88.1209 58.9836 87.9002C58.551 87.6795 58.2198 87.3007 58.0588 86.8425C57.8781 86.3607 57.8954 85.8269 58.1069 85.3578C58.3185 84.8887 58.7071 84.5224 59.1878 84.3389C70.2442 80.1322 79.2608 71.8368 84.3726 61.1687C84.4807 60.9365 84.6336 60.7279 84.8225 60.5548C85.0113 60.3818 85.2325 60.2477 85.4732 60.1603C85.714 60.0728 85.9696 60.0337 86.2255 60.0452C86.4814 60.0567 86.7325 60.1186 86.9645 60.2273C87.202 60.3292 87.416 60.4787 87.5934 60.6666C87.7709 60.8544 87.908 61.0766 87.9962 61.3195C88.0844 61.5624 88.1219 61.8208 88.1063 62.0787C88.0908 62.3367 88.0226 62.5887 87.9058 62.8193C82.3713 74.3865 72.5969 83.3797 60.6098 87.9337L60.3827 88.0279Z" fill="#F39A0F"/>
    <path d="M27.0108 3.4076C18.1131 6.85947 10.7073 13.3217 6.082 21.6697C1.4567 30.0178 -0.0953353 39.7234 1.696 49.0975C3.4558 58.1889 8.29405 66.3965 15.3963 72.3386C16.6495 73.4096 17.6139 74.7779 18.2011 76.3183C18.7883 77.8587 18.9797 79.5218 18.7575 81.1552L17.6856 89.4448L29.4572 82.6942C31.3726 81.5976 33.5991 81.1719 35.7839 81.4846C42.6126 82.4777 49.5818 81.7077 56.0289 79.2475C64.7808 75.8858 72.1058 69.609 76.7686 61.4754C81.4314 53.3418 83.1468 43.8491 81.6256 34.598C80.6226 28.6653 78.3151 23.0293 74.8698 18.0965C71.4244 13.1637 66.9271 9.05717 61.7022 6.07326C56.4774 3.08935 50.6553 1.30245 44.6561 0.841474C38.6569 0.380501 32.6302 1.25696 27.0108 3.4076Z" fill="#F39A0F"/>
    <path d="M47.9178 60.8747L49.482 58.1354C49.482 58.1354 46.6514 54.5667 52.0067 45.8489C55.1727 40.6447 55.0658 36.4658 53.8416 33.3534C52.8702 30.9312 51.1098 28.9077 48.8453 27.6104C46.5808 26.3132 43.9449 25.8181 41.364 26.2053C38.0637 26.7295 34.4017 28.7469 31.5191 34.1124C26.6644 43.1334 22.1746 42.5213 22.1746 42.5213L20.6009 45.2605L47.9178 60.8747Z" fill="white"/>
    <path d="M27.7179 52.2299C27.1852 53.6036 27.163 55.1228 27.6552 56.5115C28.1475 57.9002 29.1216 59.0662 30.4005 59.7978C31.6758 60.5259 33.1691 60.7749 34.6117 60.4999C36.0542 60.2248 37.3512 59.4438 38.269 58.2975L27.7179 52.2299Z" fill="white"/>
    <path d="M53.3999 25.7145L52.4516 27.4244C50.9559 26.0381 49.1623 25.0131 47.2086 24.4282L48.1568 22.7088C48.558 22.0111 49.2199 21.5014 49.9968 21.2916C50.7738 21.0818 51.6023 21.1892 52.3001 21.5901C52.9895 21.9944 53.4915 22.6542 53.6974 23.4263C53.9033 24.1985 53.7964 25.0207 53.3999 25.7145Z" fill="white"/>
    <path d="M29.8675 2.44759C37.4125 2.64674 44.6925 5.27176 50.6283 9.93352C56.5642 14.5953 60.8399 21.0456 62.8217 28.3284C65.2609 37.3062 64.0345 46.8852 59.4122 54.959C54.7899 63.0327 47.15 68.9399 38.1729 71.3817C33.492 72.6542 28.5977 72.9393 23.8008 72.2189C19.0038 71.4984 14.4091 69.7882 10.3086 67.1968C11.8524 69.0579 13.5581 70.7785 15.4058 72.3384C16.659 73.4094 17.6233 74.7778 18.2106 76.3181C18.7978 77.8585 18.9891 79.5216 18.7669 81.155L17.695 89.4447L29.4572 82.694C31.3726 81.5974 33.5992 81.1717 35.7839 81.4844C42.6126 82.4776 49.5818 81.7075 56.0289 79.2473C64.7808 75.8856 72.1058 69.6088 76.7686 61.4752C81.4314 53.3416 83.1469 43.8489 81.6256 34.5978C80.6634 28.9173 78.5047 23.5062 75.2926 18.7232C72.0805 13.9402 67.8885 9.89462 62.9943 6.85458C58.1002 3.81453 52.6158 1.84949 46.9047 1.08972C41.1935 0.329946 35.3862 0.792799 29.8675 2.44759Z" fill="#F39A0F"/>
  </g>
  <defs>
    <clipPath id="clip0_313_1050">
      <rect width="87.1012" height="88.7746" fill="white" transform="matrix(-0.999999 -0.0015778 -0.0015778 0.999999 88.1172 0.78125)"/>
    </clipPath>
  </defs>
</svg>