<svg
    xmlns="http://www.w3.org/2000/svg"
    width="832"
    height="711"
    viewBox="0 0 832 711"
    fill="none"
    >
    <g opacity="0.8" filter="url(#filter0_f_313_533)">
        <path
        d="M46.9933 387.083C45.1422 406.624 43.6139 426.164 42.1071 445.622C37.0704 510.273 39.6749 576.858 94.9933 622.488C125.774 647.87 166.175 659.803 206.233 665.499C287.768 677.119 370.832 665.499 451.894 650.947C535.689 636.042 620.905 617.395 692.819 573.262C746.372 540.395 793.641 487.178 791.833 425.915C790.929 396.167 778.53 367.854 764.087 341.557C738.43 294.825 703.818 250.193 655 226.348C612.08 205.415 562.444 202.463 516.08 190.094C458.75 174.702 406.651 144.947 365.063 103.844C342.096 80.9768 320.895 53.9521 289.576 44.0569C262.003 35.4091 231.46 42.2276 205.63 54.9707C165.121 74.9898 133.092 108.812 110.599 146.979C67.8507 219.405 54.7852 305.323 46.9933 387.083Z"
        fill="#4B5563"
        />
    </g>
    <defs>
        <filter
        id="filter0_f_313_533"
        x="0.361206"
        y="0.189087"
        width="831.522"
        height="710.052"
        filterUnits="userSpaceOnUse"
        color-interpolation-filters="sRGB"
        >
        <feFlood flood-opacity="0" result="BackgroundImageFix" />
        <feBlend
            mode="normal"
            in="SourceGraphic"
            in2="BackgroundImageFix"
            result="shape"
        />
        <feGaussianBlur
            stdDeviation="20"
            result="effect1_foregroundBlur_313_533"
        />
        </filter>
    </defs>
    </svg>