<svg
              xmlns="http://www.w3.org/2000/svg"
              width="89"
              height="78"
              viewBox="0 0 89 78"
              fill="none"
            >
              <path
                d="M50.1717 33.4195L49.9994 32.4633C49.961 32.1733 49.8401 31.8993 49.6501 31.6718C49.4601 31.4442 49.2085 31.272 48.9232 31.1744L48.0621 30.8626L27.6353 23.5659L23.3303 22.0068C23.0473 21.9181 22.746 21.8983 22.4531 21.9491C22.1603 21.9999 21.8849 22.1197 21.6515 22.2978L0.621836 39.1571C0.393564 39.3423 0.21827 39.581 0.112754 39.8503C0.00723754 40.1196 -0.0249065 40.4106 0.019214 40.6954L4.15191 63.9989L4.66848 66.6806C4.71691 66.9676 4.84438 67.2368 5.03752 67.4599C5.23065 67.683 5.48236 67.8518 5.76626 67.9487L31.316 77.0747C31.5092 77.0951 31.7041 77.0951 31.8972 77.0747C32.2967 77.0751 32.6842 76.943 32.9949 76.7005L54.0245 59.8621C54.2541 59.6739 54.4285 59.431 54.5304 59.1574C54.6324 58.8838 54.6584 58.5892 54.6057 58.303L50.1717 33.4195ZM31.5743 73.7486L7.76804 65.2462L6.64872 59.0098L3.48465 41.1527L23.0291 25.4784L25.7197 26.4555L46.8354 34.0016L51.1403 58.1782L31.5743 73.7486Z"
                fill="#2D3962"
              />
              <path
                d="M87.6675 6.81072C87.6466 6.52206 87.5429 6.24473 87.368 6.00976C87.1931 5.77479 86.954 5.59145 86.6774 5.48027L74.4729 0.158498C74.2057 0.0332954 73.9083 -0.019311 73.6125 0.00632454C73.3167 0.0319601 73.0339 0.13487 72.794 0.304015L61.8379 7.80855C61.5993 7.97472 61.4101 8.19853 61.2892 8.45756C61.1683 8.7166 61.12 9.00177 61.1491 9.28451L62.2469 20.5725L62.3976 22.2148C62.4255 22.4987 62.5295 22.7706 62.6994 23.0039C62.8692 23.2372 63.0991 23.4237 63.3662 23.5452L63.6461 23.6699L75.5707 28.9293C75.7922 29.0315 76.0357 29.0814 76.281 29.0749C76.6279 29.0809 76.9674 28.9788 77.2495 28.7838L88.2056 21.2793C88.4482 21.1156 88.6418 20.8928 88.7665 20.6336C88.8912 20.3744 88.9428 20.088 88.916 19.8033L87.6675 6.81072ZM76.0873 25.5201L65.6694 20.9467L64.5932 9.90815L73.9563 3.52619L84.3957 8.12037L85.4506 19.1589L76.0873 25.5201Z"
                fill="#2D3962"
              />
              <path
                d="M48.3417 34.2719C48.0801 34.2696 47.8224 34.2105 47.5876 34.0989C47.3529 33.9874 47.1471 33.8262 46.9856 33.6274C46.8511 33.4561 46.7533 33.2606 46.6978 33.0523C46.6423 32.8441 46.6301 32.6273 46.6622 32.4144C46.6942 32.2016 46.7698 31.9971 46.8845 31.8128C46.9992 31.6285 47.1506 31.468 47.3301 31.3407L62.7417 20.1359C63.0995 19.8767 63.5487 19.7641 63.9919 19.8224C64.4351 19.8808 64.8366 20.1055 65.1095 20.4477C65.244 20.6191 65.3418 20.8146 65.3973 21.0228C65.4529 21.2311 65.465 21.4479 65.433 21.6607C65.4009 21.8735 65.3253 22.078 65.2107 22.2624C65.096 22.4467 64.9445 22.6072 64.765 22.7344L49.3534 33.9393C49.0659 34.1593 48.7085 34.2768 48.3417 34.2719Z"
                fill="#2D3962"
              />
            </svg>