<svg xmlns="http://www.w3.org/2000/svg" width="102" height="101" viewBox="0 0 102 101" fill="none">
  <g clip-path="url(#clip0_332_3504)">
    <path d="M97.2648 21.2372L81.4467 59.5824L69.4662 51.586L62.6899 61.6788L61.2531 44.8062L46.7687 36.2102L97.2648 21.2372Z" fill="#EAAD40"/>
    <path d="M66.8128 49.8106L81.4465 59.5824L69.466 51.586L62.6897 61.6788L61.2529 44.8062L84.0198 30.8899L66.8128 49.8106Z" fill="#E5923E"/>
    <path d="M61.6084 48.9448L84.0198 30.8899L61.2529 44.8062L61.6084 48.9448Z" fill="#E1763B"/>
    <path d="M62.4507 66.4371C62.5721 65.691 62.7268 64.9538 62.913 64.2322L61.7932 63.9321C61.5896 64.692 61.4376 65.4727 61.3157 66.2473L62.4507 66.4371Z" fill="#54A0FF"/>
    <path d="M76.1301 91.0477C77.5833 90.9402 78.9834 90.4561 80.1926 89.6431L80.836 90.6013C79.4622 91.5323 77.8702 92.0904 76.2158 92.2208L76.1301 91.0477ZM67.5601 88.3727L68.4135 87.587C69.3946 88.6928 70.5759 89.6031 71.8951 90.2701L71.4022 91.3096C69.9509 90.5845 68.6513 89.5889 67.5734 88.3763L67.5601 88.3727ZM82.9541 86.3754C83.5085 85.2241 83.7931 83.9615 83.7862 82.6836C83.813 82.5836 83.7847 82.476 83.7763 82.3738L83.7615 82.1626L84.9164 82.0649L84.9272 82.3178C84.9386 82.4352 84.9367 82.549 84.9414 82.6645C84.9536 84.1224 84.6286 85.5634 83.9919 86.8749L82.9541 86.3754ZM34.6443 87.0039L34.7172 85.8519C36.2639 85.9448 37.8218 85.9694 39.3198 85.9778L39.3237 87.1362C37.8089 87.1375 36.2346 87.0942 34.6594 87.0008L34.6443 87.0039ZM43.9111 85.7722L44.6401 85.7175C46.0267 85.5818 47.2714 85.4153 48.4669 85.1927L48.6771 86.3277C47.4514 86.5565 46.1698 86.7274 44.7481 86.8609L44.0155 86.9289L43.9111 85.7722ZM25.3724 85.8553L25.5755 84.7239C27.1091 84.9991 28.6467 85.2325 30.1333 85.4165L29.9902 86.564C28.4987 86.3716 26.9357 86.1528 25.3875 85.8522L25.3724 85.8553ZM52.8549 84.0396C54.0938 83.609 55.2899 83.0637 56.4274 82.4109C56.5965 82.3133 56.7673 82.209 56.9314 82.103L57.5392 83.0874L57.0032 83.4081C55.8049 84.0961 54.5457 84.6722 53.2417 85.1291L52.8549 84.0396ZM62.7204 80.2537L63.8055 79.8301C64.3388 81.2482 64.9922 82.6183 65.7585 83.9253L64.7662 84.5095C63.9661 83.154 63.286 81.7312 62.7337 80.2573L62.7204 80.2537ZM16.3002 83.7745L16.5967 82.6681C18.123 83.0771 19.6226 83.4789 21.0735 83.7962L20.8152 84.92C19.3497 84.5773 17.8247 84.1901 16.3002 83.7745ZM7.39508 81.0169L7.76664 79.9235C9.22618 80.4217 10.6978 80.9017 12.168 81.36L11.8213 82.4672C10.3444 82.0072 8.84796 81.5134 7.38175 81.0134L7.39508 81.0169ZM60.6821 79.4361C61.8104 78.569 62.9921 77.7738 64.2204 77.0552L64.6225 76.8343L65.1644 77.8511L64.7792 78.0622C63.5956 78.757 62.4567 79.5255 61.3695 80.3632L60.6821 79.4361ZM78.2776 76.4213L78.6492 75.3279C80.2367 75.7062 81.7054 76.4728 82.9233 77.559L82.1276 78.3959C81.0246 77.4334 79.7028 76.7555 78.2776 76.4213ZM69.1213 75.1609C70.6738 74.7952 72.2654 74.6219 73.8602 74.6447L73.8508 75.7995L73.3806 75.7949C72.0342 75.8127 70.6938 75.9782 69.3836 76.2884L69.1213 75.1609ZM60.99 70.9819L62.1453 70.9628C62.1706 72.4788 62.3249 73.9899 62.6066 75.4798L61.4764 75.6985C61.1751 74.1445 61.0073 72.5676 60.9749 70.985L60.99 70.9819Z" fill="#54A0FF"/>
    <path d="M2.94596 79.439L3.34418 78.3527L1.18184 77.5447L0.776943 78.6292L2.94596 79.439Z" fill="#54A0FF"/>
    <path d="M81.4775 21.529L68.6552 24.6726C68.4992 24.71 68.3522 24.7779 68.2226 24.8725C68.093 24.967 67.9835 25.0863 67.9003 25.2234C67.817 25.3605 67.7618 25.5127 67.7377 25.6713C67.7136 25.8298 67.7212 25.9916 67.76 26.1472L67.8135 26.3473C67.8529 26.5029 67.9226 26.6491 68.0186 26.7777C68.1146 26.9063 68.2349 27.0148 68.3728 27.0968C68.5107 27.1789 68.6635 27.233 68.8223 27.256C68.9811 27.279 69.1429 27.2705 69.2984 27.231L82.0756 23.8824C82.2346 23.841 82.3836 23.7679 82.5135 23.6674C82.6434 23.5668 82.7515 23.441 82.8314 23.2974C82.9113 23.1539 82.9612 22.9956 82.9781 22.8322C82.9951 22.6688 82.9787 22.5037 82.93 22.3468C82.8394 22.0499 82.6379 21.7994 82.3675 21.6471C82.097 21.4948 81.7783 21.4525 81.4775 21.529Z" fill="#EAAD40"/>
  </g>
  <defs>
    <clipPath id="clip0_332_3504">
      <rect width="82.7" height="81.3682" fill="white" transform="translate(21.5884 0.959961) rotate(15)"/>
    </clipPath>
  </defs>
</svg>