<svg
              xmlns="http://www.w3.org/2000/svg"
              width="19"
              height="19"
              viewBox="0 0 19 19"
              fill="none"
            >
              <path
                d="M9.44943 18.0649C8.9756 18.0649 8.52116 17.8831 8.18611 17.5596C7.85107 17.236 7.66284 16.7971 7.66284 16.3395V1.62148C7.6903 1.18212 7.89065 0.76951 8.22277 0.468083C8.55488 0.166655 8.99367 -0.000796495 9.44943 2.84866e-06C9.92525 -2.97165e-05 10.3819 0.18109 10.7204 0.504085C11.0588 0.82708 11.2519 1.26591 11.2576 1.72543V16.4435C11.2248 16.8846 11.02 17.2974 10.6844 17.5983C10.3488 17.8993 9.9074 18.0661 9.44943 18.0649Z"
                fill="#2D3962"
              />
              <path
                d="M17.0261 10.706H1.78658C1.55197 10.706 1.31966 10.6613 1.1029 10.5746C0.886149 10.4879 0.689167 10.3608 0.523271 10.2006C0.357375 10.0404 0.225757 9.85018 0.135974 9.64084C0.0461919 9.4315 0 9.20713 0 8.98055C0 8.75396 0.0461919 8.5296 0.135974 8.32026C0.225757 8.11092 0.357375 7.92071 0.523271 7.76049C0.689167 7.60027 0.886149 7.47318 1.1029 7.38646C1.31966 7.29975 1.55197 7.25513 1.78658 7.25513H17.0261C17.5019 7.25509 17.9585 7.43621 18.297 7.75921C18.6355 8.0822 18.8284 8.52104 18.8341 8.98055C18.8284 9.44006 18.6355 9.8789 18.297 10.2019C17.9585 10.5249 17.5019 10.706 17.0261 10.706Z"
                fill="#2D3962"
              />
            </svg>